<svg xmlns="http://www.w3.org/2000/svg" width="1920" height="1080" viewBox="0 0 1920 1080">
  <defs>
    <pattern id="scan" width="6" height="6" patternUnits="userSpaceOnUse">
      <rect width="6" height="5" fill="rgba(0,0,0,0.00)"/>
      <rect y="5" width="6" height="1" fill="rgba(255,143,31,0.10)"/>
    </pattern>
    <pattern id="noise" width="18" height="18" patternUnits="userSpaceOnUse">
      <circle cx="3" cy="4" r="0.8" fill="rgba(255,143,31,0.08)"/>
      <circle cx="11" cy="7" r="0.6" fill="rgba(255,143,31,0.06)"/>
      <circle cx="6" cy="14" r="0.7" fill="rgba(255,143,31,0.07)"/>
      <circle cx="15" cy="15" r="0.5" fill="rgba(255,143,31,0.05)"/>
    </pattern>
    <radialGradient id="glow" cx="50%" cy="42%" r="65%">
      <stop offset="0%" stop-color="rgba(255,143,31,0.08)"/>
      <stop offset="65%" stop-color="rgba(255,143,31,0.02)"/>
      <stop offset="100%" stop-color="rgba(0,0,0,0.00)"/>
    </radialGradient>
    <linearGradient id="footer" x1="0%" y1="0%" x2="0%" y2="100%">
      <stop offset="0%" stop-color="rgba(255,143,31,0.20)"/>
      <stop offset="100%" stop-color="rgba(255,143,31,0.07)"/>
    </linearGradient>
  </defs>

  <rect width="1920" height="1080" fill="rgba(0,0,0,0.00)"/>
  <rect x="12" y="12" width="1896" height="1056" fill="none" stroke="rgba(255,143,31,0.84)" stroke-width="6"/>
  <rect x="28" y="28" width="1864" height="1024" fill="none" stroke="rgba(255,143,31,0.55)" stroke-width="2"/>

  <rect x="40" y="40" width="1840" height="920" fill="url(#scan)"/>
  <rect x="40" y="40" width="1840" height="920" fill="url(#noise)"/>
  <rect x="40" y="40" width="1840" height="920" fill="url(#glow)"/>

  <rect x="40" y="962" width="1840" height="72" fill="url(#footer)" stroke="rgba(255,143,31,0.70)" stroke-width="2"/>
  <text x="64" y="1008" fill="rgba(255,143,31,0.88)" font-family="IBM Plex Mono, monospace" font-size="30" letter-spacing="2">TVA  FILE  EDIT  VIEW  MODE  HELP</text>

  <rect x="66" y="84" width="28" height="28" fill="none" stroke="rgba(255,143,31,0.70)" stroke-width="3"/>
  <rect x="66" y="124" width="28" height="28" fill="rgba(255,143,31,0.70)"/>
  <rect x="1826" y="82" width="30" height="66" fill="rgba(255,143,31,0.90)"/>
</svg>
